<svg width="540" height="60" viewBox="0 0 540 60" fill="none" xmlns="http://www.w3.org/2000/svg">
<g clip-path="url(#clip0_1_1037)">
<path d="M40 48V44C40 41.8783 39.1571 39.8434 37.6569 38.3431C36.1566 36.8429 34.1217 36 32 36H30C29.4696 36 28.9609 35.7893 28.5858 35.4142C28.2107 35.0391 28 34.5304 28 34V24C28 22.9391 27.5786 21.9217 26.8284 21.1716C26.0783 20.4214 25.0609 20 24 20C22.9391 20 21.9217 20.4214 21.1716 21.1716C20.4214 21.9217 20 22.9391 20 24V42L15.2 35.6C14.8274 35.1032 14.3443 34.7 13.7889 34.4223C13.2334 34.1446 12.621 34 12 34H11.132C9.402 34 8 35.402 8 37.132C8 37.7 8.154 38.258 8.446 38.744L14 48M24 14V12V14ZM36 26H38H36ZM10 26H12H10ZM14.686 16.686L13.272 15.272L14.686 16.686ZM33.314 16.686L34.728 15.272L33.314 16.686Z" fill="#4CAF4F"/>
<path d="M40 48V44C40 41.8783 39.1571 39.8434 37.6569 38.3431C36.1566 36.8429 34.1217 36 32 36H30C29.4696 36 28.9609 35.7893 28.5858 35.4142C28.2107 35.0391 28 34.5304 28 34V24C28 22.9391 27.5786 21.9217 26.8284 21.1716C26.0783 20.4214 25.0609 20 24 20V20C22.9391 20 21.9217 20.4214 21.1716 21.1716C20.4214 21.9217 20 22.9391 20 24V42L15.2 35.6C14.8274 35.1032 14.3443 34.7 13.7889 34.4223C13.2334 34.1446 12.621 34 12 34H11.132C9.402 34 8 35.402 8 37.132C8 37.7 8.154 38.258 8.446 38.744L14 48M24 14V12M36 26H38M10 26H12M14.686 16.686L13.272 15.272M33.314 16.686L34.728 15.272" stroke="#4CAF4F" stroke-width="2" stroke-linecap="round" stroke-linejoin="round"/>
<g clip-path="url(#clip1_1_1037)">
<path d="M73.2472 28.2784C71.7159 28.2784 70.3537 28.0298 69.1605 27.5327C67.974 27.0289 67.0426 26.3428 66.3665 25.4744C65.6903 24.6061 65.3523 23.6217 65.3523 22.5213C65.3523 21.6728 65.5445 20.8939 65.929 20.1847C66.3201 19.4688 66.8504 18.8755 67.5199 18.4048C68.1894 17.9276 68.9384 17.6226 69.767 17.4901V17.3509C68.6799 17.1321 67.7983 16.6051 67.1222 15.7699C66.446 14.928 66.108 13.9503 66.108 12.8366C66.108 11.7827 66.4162 10.8447 67.0327 10.0227C67.6491 9.19413 68.4943 8.54451 69.5682 8.07386C70.6487 7.59659 71.875 7.35795 73.2472 7.35795C74.6193 7.35795 75.8423 7.59659 76.9162 8.07386C77.9967 8.55114 78.8452 9.20407 79.4616 10.0327C80.0781 10.8546 80.3897 11.7893 80.3963 12.8366C80.3897 13.9569 80.045 14.9347 79.3622 15.7699C78.6795 16.6051 77.8045 17.1321 76.7372 17.3509V17.4901C77.5526 17.6226 78.2917 17.9276 78.9545 18.4048C79.6241 18.8755 80.1544 19.4688 80.5455 20.1847C80.9432 20.8939 81.1454 21.6728 81.152 22.5213C81.1454 23.6217 80.804 24.6061 80.1278 25.4744C79.4517 26.3428 78.517 27.0289 77.3239 27.5327C76.1373 28.0298 74.7784 28.2784 73.2472 28.2784ZM73.2472 25.1165C73.9299 25.1165 74.5265 24.9938 75.0369 24.7486C75.5473 24.4967 75.9451 24.152 76.2301 23.7145C76.5218 23.2704 76.6676 22.7599 76.6676 22.1832C76.6676 21.5933 76.5185 21.0729 76.2202 20.6222C75.9219 20.1648 75.5175 19.8068 75.0071 19.5483C74.4967 19.2831 73.91 19.1506 73.2472 19.1506C72.5909 19.1506 72.0043 19.2831 71.4872 19.5483C70.9702 19.8068 70.5625 20.1648 70.2642 20.6222C69.9725 21.0729 69.8267 21.5933 69.8267 22.1832C69.8267 22.7599 69.9692 23.2704 70.2543 23.7145C70.5393 24.152 70.9403 24.4967 71.4574 24.7486C71.9744 24.9938 72.571 25.1165 73.2472 25.1165ZM73.2472 16.0185C73.8172 16.0185 74.3243 15.9025 74.7685 15.6705C75.2126 15.4384 75.5606 15.117 75.8125 14.706C76.0644 14.295 76.1903 13.821 76.1903 13.2841C76.1903 12.7538 76.0644 12.2898 75.8125 11.892C75.5606 11.4877 75.2159 11.1728 74.7784 10.9474C74.3409 10.7154 73.8305 10.5994 73.2472 10.5994C72.6705 10.5994 72.16 10.7154 71.7159 10.9474C71.2718 11.1728 70.9238 11.4877 70.6719 11.892C70.4266 12.2898 70.304 12.7538 70.304 13.2841C70.304 13.821 70.4299 14.295 70.6818 14.706C70.9337 15.117 71.2817 15.4384 71.7259 15.6705C72.17 15.9025 72.6771 16.0185 73.2472 16.0185ZM84.1623 28V24.8977L91.4109 18.1861C92.0273 17.5895 92.5444 17.0526 92.962 16.5753C93.3862 16.098 93.7077 15.6307 93.9265 15.1733C94.1452 14.7093 94.2546 14.2088 94.2546 13.6719C94.2546 13.0753 94.1187 12.5616 93.8469 12.1307C93.5752 11.6932 93.204 11.3584 92.7333 11.1264C92.2627 10.8878 91.729 10.7685 91.1325 10.7685C90.5094 10.7685 89.9658 10.8944 89.5018 11.1463C89.0378 11.3982 88.6798 11.7595 88.4279 12.2301C88.176 12.7008 88.0501 13.2609 88.0501 13.9105H83.9634C83.9634 12.5781 84.265 11.4214 84.8683 10.4403C85.4715 9.45928 86.3166 8.70028 87.4038 8.16335C88.4909 7.62642 89.7437 7.35795 91.1623 7.35795C92.6206 7.35795 93.89 7.61648 94.9705 8.13352C96.0576 8.64394 96.9028 9.35322 97.506 10.2614C98.1093 11.1695 98.4109 12.2102 98.4109 13.3835C98.4109 14.1525 98.2584 14.9115 97.9535 15.6605C97.6552 16.4096 97.1216 17.2415 96.3526 18.1562C95.5837 19.0644 94.4999 20.1548 93.1012 21.4276L90.1282 24.3409V24.4801H98.6793V28H84.1623ZM109.396 28.2784C107.864 28.2784 106.502 28.0298 105.309 27.5327C104.122 27.0289 103.191 26.3428 102.515 25.4744C101.839 24.6061 101.501 23.6217 101.501 22.5213C101.501 21.6728 101.693 20.8939 102.077 20.1847C102.469 19.4688 102.999 18.8755 103.668 18.4048C104.338 17.9276 105.087 17.6226 105.915 17.4901V17.3509C104.828 17.1321 103.947 16.6051 103.271 15.7699C102.594 14.928 102.256 13.9503 102.256 12.8366C102.256 11.7827 102.565 10.8447 103.181 10.0227C103.798 9.19413 104.643 8.54451 105.717 8.07386C106.797 7.59659 108.023 7.35795 109.396 7.35795C110.768 7.35795 111.991 7.59659 113.065 8.07386C114.145 8.55114 114.994 9.20407 115.61 10.0327C116.227 10.8546 116.538 11.7893 116.545 12.8366C116.538 13.9569 116.193 14.9347 115.511 15.7699C114.828 16.6051 113.953 17.1321 112.886 17.3509V17.4901C113.701 17.6226 114.44 17.9276 115.103 18.4048C115.772 18.8755 116.303 19.4688 116.694 20.1847C117.092 20.8939 117.294 21.6728 117.3 22.5213C117.294 23.6217 116.952 24.6061 116.276 25.4744C115.6 26.3428 114.665 27.0289 113.472 27.5327C112.286 28.0298 110.927 28.2784 109.396 28.2784ZM109.396 25.1165C110.078 25.1165 110.675 24.9938 111.185 24.7486C111.696 24.4967 112.094 24.152 112.379 23.7145C112.67 23.2704 112.816 22.7599 112.816 22.1832C112.816 21.5933 112.667 21.0729 112.369 20.6222C112.07 20.1648 111.666 19.8068 111.156 19.5483C110.645 19.2831 110.058 19.1506 109.396 19.1506C108.739 19.1506 108.153 19.2831 107.636 19.5483C107.119 19.8068 106.711 20.1648 106.413 20.6222C106.121 21.0729 105.975 21.5933 105.975 22.1832C105.975 22.7599 106.118 23.2704 106.403 23.7145C106.688 24.152 107.089 24.4967 107.606 24.7486C108.123 24.9938 108.719 25.1165 109.396 25.1165ZM109.396 16.0185C109.966 16.0185 110.473 15.9025 110.917 15.6705C111.361 15.4384 111.709 15.117 111.961 14.706C112.213 14.295 112.339 13.821 112.339 13.2841C112.339 12.7538 112.213 12.2898 111.961 11.892C111.709 11.4877 111.364 11.1728 110.927 10.9474C110.489 10.7154 109.979 10.5994 109.396 10.5994C108.819 10.5994 108.308 10.7154 107.864 10.9474C107.42 11.1728 107.072 11.4877 106.82 11.892C106.575 12.2898 106.452 12.7538 106.452 13.2841C106.452 13.821 106.578 14.295 106.83 14.706C107.082 15.117 107.43 15.4384 107.874 15.6705C108.318 15.9025 108.826 16.0185 109.396 16.0185ZM124.38 25.2159L124.271 26.3097C124.184 27.1847 124.019 28.0563 123.773 28.9247C123.535 29.7997 123.283 30.5919 123.018 31.3011C122.759 32.0104 122.55 32.5672 122.391 32.9716H119.647C119.746 32.5805 119.882 32.0336 120.055 31.331C120.227 30.6349 120.389 29.8527 120.542 28.9844C120.694 28.116 120.79 27.2311 120.83 26.3295L120.88 25.2159H124.38ZM134.989 28.2784C133.458 28.2784 132.096 28.0298 130.903 27.5327C129.716 27.0289 128.785 26.3428 128.109 25.4744C127.433 24.6061 127.094 23.6217 127.094 22.5213C127.094 21.6728 127.287 20.8939 127.671 20.1847C128.062 19.4688 128.593 18.8755 129.262 18.4048C129.932 17.9276 130.681 17.6226 131.509 17.4901V17.3509C130.422 17.1321 129.54 16.6051 128.864 15.7699C128.188 14.928 127.85 13.9503 127.85 12.8366C127.85 11.7827 128.158 10.8447 128.775 10.0227C129.391 9.19413 130.237 8.54451 131.31 8.07386C132.391 7.59659 133.617 7.35795 134.989 7.35795C136.362 7.35795 137.585 7.59659 138.658 8.07386C139.739 8.55114 140.587 9.20407 141.204 10.0327C141.82 10.8546 142.132 11.7893 142.138 12.8366C142.132 13.9569 141.787 14.9347 141.104 15.7699C140.422 16.6051 139.547 17.1321 138.479 17.3509V17.4901C139.295 17.6226 140.034 17.9276 140.697 18.4048C141.366 18.8755 141.897 19.4688 142.288 20.1847C142.685 20.8939 142.888 21.6728 142.894 22.5213C142.888 23.6217 142.546 24.6061 141.87 25.4744C141.194 26.3428 140.259 27.0289 139.066 27.5327C137.879 28.0298 136.521 28.2784 134.989 28.2784ZM134.989 25.1165C135.672 25.1165 136.269 24.9938 136.779 24.7486C137.29 24.4967 137.687 24.152 137.972 23.7145C138.264 23.2704 138.41 22.7599 138.41 22.1832C138.41 21.5933 138.261 21.0729 137.962 20.6222C137.664 20.1648 137.26 19.8068 136.749 19.5483C136.239 19.2831 135.652 19.1506 134.989 19.1506C134.333 19.1506 133.746 19.2831 133.229 19.5483C132.712 19.8068 132.305 20.1648 132.006 20.6222C131.715 21.0729 131.569 21.5933 131.569 22.1832C131.569 22.7599 131.711 23.2704 131.996 23.7145C132.281 24.152 132.683 24.4967 133.2 24.7486C133.717 24.9938 134.313 25.1165 134.989 25.1165ZM134.989 16.0185C135.559 16.0185 136.067 15.9025 136.511 15.6705C136.955 15.4384 137.303 15.117 137.555 14.706C137.807 14.295 137.933 13.821 137.933 13.2841C137.933 12.7538 137.807 12.2898 137.555 11.892C137.303 11.4877 136.958 11.1728 136.521 10.9474C136.083 10.7154 135.573 10.5994 134.989 10.5994C134.413 10.5994 133.902 10.7154 133.458 10.9474C133.014 11.1728 132.666 11.4877 132.414 11.892C132.169 12.2898 132.046 12.7538 132.046 13.2841C132.046 13.821 132.172 14.295 132.424 14.706C132.676 15.117 133.024 15.4384 133.468 15.6705C133.912 15.9025 134.419 16.0185 134.989 16.0185ZM153.72 28.2784C152.672 28.2718 151.662 28.0961 150.687 27.7514C149.719 27.4067 148.851 26.8466 148.082 26.071C147.313 25.2955 146.703 24.268 146.252 22.9886C145.808 21.7093 145.586 20.1383 145.586 18.2756C145.593 16.5653 145.788 15.0374 146.173 13.6918C146.564 12.3395 147.121 11.1927 147.843 10.2514C148.573 9.31013 149.444 8.59422 150.458 8.10369C151.473 7.60653 152.609 7.35795 153.869 7.35795C155.228 7.35795 156.428 7.62311 157.468 8.15341C158.509 8.67708 159.344 9.38968 159.974 10.2912C160.61 11.1927 160.995 12.2036 161.127 13.3239H156.882C156.716 12.6146 156.368 12.0578 155.838 11.6534C155.307 11.2491 154.651 11.0469 153.869 11.0469C152.543 11.0469 151.536 11.6236 150.846 12.777C150.163 13.9304 149.815 15.4981 149.802 17.4801H149.941C150.246 16.8769 150.657 16.3632 151.174 15.9389C151.698 15.508 152.291 15.1799 152.954 14.9545C153.624 14.7225 154.33 14.6065 155.072 14.6065C156.279 14.6065 157.352 14.8916 158.294 15.4616C159.235 16.0251 159.977 16.8007 160.521 17.7884C161.065 18.776 161.336 19.9062 161.336 21.179C161.336 22.5578 161.015 23.7841 160.372 24.858C159.735 25.9318 158.844 26.7737 157.697 27.3835C156.557 27.9867 155.231 28.285 153.72 28.2784ZM153.7 24.8977C154.363 24.8977 154.956 24.7386 155.48 24.4205C156.003 24.1023 156.414 23.6714 156.713 23.1278C157.011 22.5843 157.16 21.9744 157.16 21.2983C157.16 20.6222 157.011 20.0156 156.713 19.4787C156.421 18.9418 156.017 18.5142 155.5 18.196C154.983 17.8778 154.393 17.7188 153.73 17.7188C153.233 17.7188 152.772 17.8116 152.348 17.9972C151.93 18.1828 151.562 18.4413 151.244 18.7727C150.932 19.1042 150.687 19.4886 150.508 19.9261C150.329 20.357 150.24 20.8177 150.24 21.3082C150.24 21.9645 150.389 22.5644 150.687 23.108C150.992 23.6515 151.403 24.0857 151.92 24.4105C152.444 24.7353 153.037 24.8977 153.7 24.8977ZM165.194 28L173.636 11.2955V11.1562H163.802V7.63636H178.091V11.206L169.639 28H165.194Z" fill="#4D4D4D"/>
<path d="M65.4091 54V42.3636H72.4318V43.6136H66.8182V47.5455H72.0682V48.7955H66.8182V52.75H72.5227V54H65.4091ZM81.9261 45.2727L78.6989 54H77.3352L74.108 45.2727H75.5625L77.9716 52.2273H78.0625L80.4716 45.2727H81.9261ZM87.0426 54.1818C86.2017 54.1818 85.4763 53.9962 84.8665 53.625C84.2604 53.25 83.7926 52.7273 83.4631 52.0568C83.1373 51.3826 82.9744 50.5985 82.9744 49.7045C82.9744 48.8106 83.1373 48.0227 83.4631 47.3409C83.7926 46.6553 84.2509 46.1212 84.8381 45.7386C85.429 45.3523 86.1184 45.1591 86.9062 45.1591C87.3608 45.1591 87.8097 45.2348 88.2528 45.3864C88.696 45.5379 89.0994 45.7841 89.4631 46.125C89.8267 46.4621 90.1165 46.9091 90.3324 47.4659C90.5483 48.0227 90.6562 48.7083 90.6562 49.5227V50.0909H83.929V48.9318H89.2926C89.2926 48.4394 89.1941 48 88.9972 47.6136C88.804 47.2273 88.5275 46.9223 88.1676 46.6989C87.8116 46.4754 87.3911 46.3636 86.9062 46.3636C86.3722 46.3636 85.91 46.4962 85.5199 46.7614C85.1335 47.0227 84.8362 47.3636 84.6278 47.7841C84.4195 48.2045 84.3153 48.6553 84.3153 49.1364V49.9091C84.3153 50.5682 84.429 51.1269 84.6562 51.5852C84.8873 52.0398 85.2074 52.3864 85.6165 52.625C86.0256 52.8598 86.5009 52.9773 87.0426 52.9773C87.3949 52.9773 87.7131 52.928 87.9972 52.8295C88.285 52.7273 88.5331 52.5758 88.7415 52.375C88.9498 52.1705 89.1108 51.9167 89.2244 51.6136L90.5199 51.9773C90.3835 52.4167 90.1544 52.803 89.8324 53.1364C89.5104 53.4659 89.1127 53.7235 88.6392 53.9091C88.1657 54.0909 87.6335 54.1818 87.0426 54.1818ZM94.0369 48.75V54H92.696V45.2727H93.9915V46.6364H94.1051C94.3097 46.1932 94.6203 45.8371 95.0369 45.5682C95.4536 45.2955 95.9915 45.1591 96.6506 45.1591C97.2415 45.1591 97.7585 45.2803 98.2017 45.5227C98.6449 45.7614 98.9896 46.125 99.2358 46.6136C99.482 47.0985 99.6051 47.7121 99.6051 48.4545V54H98.2642V48.5455C98.2642 47.8598 98.0862 47.3258 97.7301 46.9432C97.3741 46.5568 96.8854 46.3636 96.2642 46.3636C95.8362 46.3636 95.4536 46.4564 95.1165 46.642C94.7831 46.8277 94.5199 47.0985 94.3267 47.4545C94.1335 47.8106 94.0369 48.2424 94.0369 48.75ZM105.851 45.2727V46.4091H101.328V45.2727H105.851ZM102.646 43.1818H103.987V51.5C103.987 51.8788 104.042 52.1629 104.152 52.3523C104.266 52.5379 104.41 52.6629 104.584 52.7273C104.762 52.7879 104.949 52.8182 105.146 52.8182C105.294 52.8182 105.415 52.8106 105.51 52.7955C105.605 52.7765 105.68 52.7614 105.737 52.75L106.01 53.9545C105.919 53.9886 105.792 54.0227 105.629 54.0568C105.466 54.0947 105.26 54.1136 105.01 54.1136C104.631 54.1136 104.26 54.0322 103.896 53.8693C103.536 53.7064 103.237 53.4583 102.999 53.125C102.764 52.7917 102.646 52.3712 102.646 51.8636V43.1818ZM112.55 54V42.3636H116.618C117.429 42.3636 118.097 42.5038 118.624 42.7841C119.15 43.0606 119.542 43.4337 119.8 43.9034C120.057 44.3693 120.186 44.8864 120.186 45.4545C120.186 45.9545 120.097 46.3674 119.919 46.6932C119.745 47.0189 119.514 47.2765 119.226 47.4659C118.942 47.6553 118.633 47.7955 118.3 47.8864V48C118.656 48.0227 119.014 48.1477 119.374 48.375C119.733 48.6023 120.035 48.928 120.277 49.3523C120.519 49.7765 120.641 50.2955 120.641 50.9091C120.641 51.4924 120.508 52.017 120.243 52.483C119.978 52.9489 119.559 53.3182 118.987 53.5909C118.415 53.8636 117.671 54 116.754 54H112.55ZM113.959 52.75H116.754C117.675 52.75 118.328 52.572 118.714 52.2159C119.105 51.8561 119.3 51.4205 119.3 50.9091C119.3 50.5152 119.199 50.1515 118.999 49.8182C118.798 49.4811 118.512 49.2121 118.141 49.0114C117.769 48.8068 117.33 48.7045 116.822 48.7045H113.959V52.75ZM113.959 47.4773H116.572C116.997 47.4773 117.379 47.3939 117.72 47.2273C118.065 47.0606 118.338 46.8258 118.538 46.5227C118.743 46.2197 118.845 45.8636 118.845 45.4545C118.845 44.9432 118.667 44.5095 118.311 44.1534C117.955 43.7936 117.391 43.6136 116.618 43.6136H113.959V47.4773ZM126.32 54.1818C125.532 54.1818 124.84 53.9943 124.246 53.6193C123.655 53.2443 123.193 52.7197 122.859 52.0455C122.53 51.3712 122.365 50.5833 122.365 49.6818C122.365 48.7727 122.53 47.9792 122.859 47.3011C123.193 46.6231 123.655 46.0966 124.246 45.7216C124.84 45.3466 125.532 45.1591 126.32 45.1591C127.107 45.1591 127.797 45.3466 128.388 45.7216C128.982 46.0966 129.445 46.6231 129.774 47.3011C130.107 47.9792 130.274 48.7727 130.274 49.6818C130.274 50.5833 130.107 51.3712 129.774 52.0455C129.445 52.7197 128.982 53.2443 128.388 53.6193C127.797 53.9943 127.107 54.1818 126.32 54.1818ZM126.32 52.9773C126.918 52.9773 127.411 52.8239 127.797 52.517C128.183 52.2102 128.469 51.8068 128.655 51.3068C128.84 50.8068 128.933 50.2652 128.933 49.6818C128.933 49.0985 128.84 48.5549 128.655 48.0511C128.469 47.5473 128.183 47.1402 127.797 46.8295C127.411 46.5189 126.918 46.3636 126.32 46.3636C125.721 46.3636 125.229 46.5189 124.842 46.8295C124.456 47.1402 124.17 47.5473 123.984 48.0511C123.799 48.5549 123.706 49.0985 123.706 49.6818C123.706 50.2652 123.799 50.8068 123.984 51.3068C124.17 51.8068 124.456 52.2102 124.842 52.517C125.229 52.8239 125.721 52.9773 126.32 52.9773ZM135.866 54.1818C135.079 54.1818 134.387 53.9943 133.793 53.6193C133.202 53.2443 132.74 52.7197 132.406 52.0455C132.077 51.3712 131.912 50.5833 131.912 49.6818C131.912 48.7727 132.077 47.9792 132.406 47.3011C132.74 46.6231 133.202 46.0966 133.793 45.7216C134.387 45.3466 135.079 45.1591 135.866 45.1591C136.654 45.1591 137.344 45.3466 137.935 45.7216C138.529 46.0966 138.991 46.6231 139.321 47.3011C139.654 47.9792 139.821 48.7727 139.821 49.6818C139.821 50.5833 139.654 51.3712 139.321 52.0455C138.991 52.7197 138.529 53.2443 137.935 53.6193C137.344 53.9943 136.654 54.1818 135.866 54.1818ZM135.866 52.9773C136.465 52.9773 136.957 52.8239 137.344 52.517C137.73 52.2102 138.016 51.8068 138.202 51.3068C138.387 50.8068 138.48 50.2652 138.48 49.6818C138.48 49.0985 138.387 48.5549 138.202 48.0511C138.016 47.5473 137.73 47.1402 137.344 46.8295C136.957 46.5189 136.465 46.3636 135.866 46.3636C135.268 46.3636 134.776 46.5189 134.389 46.8295C134.003 47.1402 133.717 47.5473 133.531 48.0511C133.346 48.5549 133.253 49.0985 133.253 49.6818C133.253 50.2652 133.346 50.8068 133.531 51.3068C133.717 51.8068 134.003 52.2102 134.389 52.517C134.776 52.8239 135.268 52.9773 135.866 52.9773ZM143.118 50.8182L143.095 49.1591H143.368L147.186 45.2727H148.845L144.777 49.3864H144.663L143.118 50.8182ZM141.868 54V42.3636H143.209V54H141.868ZM147.413 54L144.004 49.6818L144.959 48.75L149.118 54H147.413ZM150.571 54V45.2727H151.912V54H150.571ZM151.253 43.8182C150.991 43.8182 150.766 43.7292 150.577 43.5511C150.391 43.3731 150.298 43.1591 150.298 42.9091C150.298 42.6591 150.391 42.4451 150.577 42.267C150.766 42.089 150.991 42 151.253 42C151.514 42 151.738 42.089 151.923 42.267C152.113 42.4451 152.207 42.6591 152.207 42.9091C152.207 43.1591 152.113 43.3731 151.923 43.5511C151.738 43.7292 151.514 43.8182 151.253 43.8182ZM155.709 48.75V54H154.368V45.2727H155.663V46.6364H155.777C155.982 46.1932 156.292 45.8371 156.709 45.5682C157.125 45.2955 157.663 45.1591 158.322 45.1591C158.913 45.1591 159.43 45.2803 159.874 45.5227C160.317 45.7614 160.661 46.125 160.908 46.6136C161.154 47.0985 161.277 47.7121 161.277 48.4545V54H159.936V48.5455C159.936 47.8598 159.758 47.3258 159.402 46.9432C159.046 46.5568 158.557 46.3636 157.936 46.3636C157.508 46.3636 157.125 46.4564 156.788 46.642C156.455 46.8277 156.192 47.0985 155.999 47.4545C155.805 47.8106 155.709 48.2424 155.709 48.75ZM167.25 57.4545C166.602 57.4545 166.045 57.3712 165.58 57.2045C165.114 57.0417 164.725 56.8258 164.415 56.5568C164.108 56.2917 163.864 56.0076 163.682 55.7045L164.75 54.9545C164.871 55.1136 165.025 55.2955 165.21 55.5C165.396 55.7083 165.65 55.8883 165.972 56.0398C166.297 56.1951 166.723 56.2727 167.25 56.2727C167.955 56.2727 168.536 56.1023 168.994 55.7614C169.453 55.4205 169.682 54.8864 169.682 54.1591V52.3864H169.568C169.47 52.5455 169.33 52.7424 169.148 52.9773C168.97 53.2083 168.712 53.4148 168.375 53.5966C168.042 53.7746 167.591 53.8636 167.023 53.8636C166.318 53.8636 165.686 53.697 165.125 53.3636C164.568 53.0303 164.127 52.5455 163.801 51.9091C163.479 51.2727 163.318 50.5 163.318 49.5909C163.318 48.697 163.475 47.9186 163.79 47.2557C164.104 46.589 164.542 46.0739 165.102 45.7102C165.663 45.3428 166.311 45.1591 167.045 45.1591C167.614 45.1591 168.064 45.2538 168.398 45.4432C168.735 45.6288 168.992 45.8409 169.17 46.0795C169.352 46.3144 169.492 46.5076 169.591 46.6591H169.727V45.2727H171.023V54.25C171.023 55 170.852 55.6098 170.511 56.0795C170.174 56.553 169.72 56.8996 169.148 57.1193C168.58 57.3428 167.947 57.4545 167.25 57.4545ZM167.205 52.6591C167.742 52.6591 168.197 52.536 168.568 52.2898C168.939 52.0436 169.222 51.6894 169.415 51.2273C169.608 50.7652 169.705 50.2121 169.705 49.5682C169.705 48.9394 169.61 48.3845 169.42 47.9034C169.231 47.4223 168.951 47.0455 168.58 46.7727C168.208 46.5 167.75 46.3636 167.205 46.3636C166.636 46.3636 166.163 46.5076 165.784 46.7955C165.409 47.0833 165.127 47.4697 164.938 47.9545C164.752 48.4394 164.659 48.9773 164.659 49.5682C164.659 50.1742 164.754 50.7102 164.943 51.1761C165.136 51.6383 165.42 52.0019 165.795 52.267C166.174 52.5284 166.644 52.6591 167.205 52.6591ZM179.659 47.2273L178.455 47.5682C178.379 47.3674 178.267 47.1723 178.119 46.983C177.975 46.7898 177.778 46.6307 177.528 46.5057C177.278 46.3807 176.958 46.3182 176.568 46.3182C176.034 46.3182 175.589 46.4413 175.233 46.6875C174.881 46.9299 174.705 47.2386 174.705 47.6136C174.705 47.947 174.826 48.2102 175.068 48.4034C175.311 48.5966 175.689 48.7576 176.205 48.8864L177.5 49.2045C178.28 49.3939 178.862 49.6837 179.244 50.0739C179.627 50.4602 179.818 50.9583 179.818 51.5682C179.818 52.0682 179.674 52.5152 179.386 52.9091C179.102 53.303 178.705 53.6136 178.193 53.8409C177.682 54.0682 177.087 54.1818 176.409 54.1818C175.519 54.1818 174.782 53.9886 174.199 53.6023C173.616 53.2159 173.246 52.6515 173.091 51.9091L174.364 51.5909C174.485 52.0606 174.714 52.4129 175.051 52.6477C175.392 52.8826 175.837 53 176.386 53C177.011 53 177.508 52.8674 177.875 52.6023C178.246 52.3333 178.432 52.0114 178.432 51.6364C178.432 51.3333 178.326 51.0795 178.114 50.875C177.902 50.6667 177.576 50.5114 177.136 50.4091L175.682 50.0682C174.883 49.8788 174.295 49.5852 173.92 49.1875C173.549 48.786 173.364 48.2841 173.364 47.6818C173.364 47.1894 173.502 46.7538 173.778 46.375C174.059 45.9962 174.439 45.6989 174.92 45.483C175.405 45.267 175.955 45.1591 176.568 45.1591C177.432 45.1591 178.11 45.3485 178.602 45.7273C179.098 46.1061 179.451 46.6061 179.659 47.2273Z" fill="#717171"/>
</g>
<path d="M290.5 22.5V23H291H327H327.5V22.5V20.25C327.5 19.1228 327.052 18.0418 326.255 17.2448C325.458 16.4478 324.377 16 323.25 16H294.75C293.623 16 292.542 16.4478 291.745 17.2448C290.948 18.0418 290.5 19.1228 290.5 20.25V22.5ZM327.5 25.5V25H327H291H290.5V25.5V39.75C290.5 40.8772 290.948 41.9582 291.745 42.7552C292.542 43.5522 293.623 44 294.75 44H323.25C324.377 44 325.458 43.5522 326.255 42.7552C327.052 41.9582 327.5 40.8772 327.5 39.75V25.5ZM288.5 20.25C288.5 18.5924 289.158 17.0027 290.331 15.8306C291.503 14.6585 293.092 14 294.75 14H323.25C324.908 14 326.497 14.6585 327.669 15.8306C328.842 17.0027 329.5 18.5924 329.5 20.25V39.75C329.5 41.4076 328.842 42.9973 327.669 44.1694C326.497 45.3415 324.908 46 323.25 46H294.75C293.092 46 291.503 45.3415 290.331 44.1694C289.158 42.9973 288.5 41.4076 288.5 39.75V20.25ZM316.5 35H321C321.265 35 321.52 35.1054 321.707 35.2929C321.895 35.4804 322 35.7348 322 36C322 36.2652 321.895 36.5196 321.707 36.7071C321.52 36.8946 321.265 37 321 37H316.5C316.235 37 315.98 36.8946 315.793 36.7071C315.605 36.5196 315.5 36.2652 315.5 36C315.5 35.7348 315.605 35.4804 315.793 35.2929C315.98 35.1054 316.235 35 316.5 35Z" fill="#4CAF4F" stroke="#4CAF4F"/>
<g clip-path="url(#clip2_1_1037)">
<path d="M359.51 7.63636V28H355.205V11.723H355.085L350.422 14.6463V10.8281L355.463 7.63636H359.51ZM367.9 25.2159L367.79 26.3097C367.704 27.1847 367.538 28.0563 367.293 28.9247C367.054 29.7997 366.802 30.5919 366.537 31.3011C366.279 32.0104 366.07 32.5672 365.911 32.9716H363.167C363.266 32.5805 363.402 32.0336 363.574 31.331C363.747 30.6349 363.909 29.8527 364.061 28.9844C364.214 28.116 364.31 27.2311 364.35 26.3295L364.4 25.2159H367.9ZM378.718 7.35795C379.765 7.35795 380.773 7.53362 381.74 7.88494C382.715 8.23627 383.583 8.7964 384.346 9.56534C385.114 10.3343 385.721 11.3551 386.165 12.6278C386.616 13.8939 386.845 15.4484 386.851 17.2912C386.851 19.0213 386.656 20.5658 386.265 21.9247C385.88 23.277 385.327 24.4271 384.604 25.375C383.882 26.3229 383.01 27.0455 381.989 27.5426C380.968 28.0331 379.828 28.2784 378.569 28.2784C377.21 28.2784 376.01 28.0166 374.969 27.4929C373.928 26.9626 373.09 26.2434 372.453 25.3352C371.824 24.4205 371.443 23.393 371.31 22.2528H375.556C375.721 22.9953 376.069 23.572 376.6 23.983C377.13 24.3873 377.786 24.5895 378.569 24.5895C379.894 24.5895 380.902 24.0128 381.591 22.8594C382.281 21.6993 382.629 20.1117 382.635 18.0966H382.496C382.191 18.6932 381.78 19.2069 381.263 19.6378C380.746 20.062 380.153 20.3902 379.483 20.6222C378.82 20.8542 378.114 20.9702 377.365 20.9702C376.166 20.9702 375.095 20.6884 374.154 20.125C373.212 19.5616 372.47 18.786 371.926 17.7983C371.383 16.8106 371.111 15.6837 371.111 14.4176C371.105 13.0521 371.419 11.8357 372.056 10.7685C372.692 9.70123 373.58 8.866 374.721 8.26278C375.867 7.65293 377.2 7.35132 378.718 7.35795ZM378.748 10.7386C378.078 10.7386 377.481 10.8977 376.958 11.2159C376.441 11.5341 376.03 11.9616 375.725 12.4986C375.426 13.0355 375.281 13.6354 375.287 14.2983C375.287 14.9678 375.433 15.571 375.725 16.108C376.023 16.6383 376.427 17.0625 376.938 17.3807C377.455 17.6922 378.045 17.848 378.708 17.848C379.205 17.848 379.666 17.7552 380.09 17.5696C380.514 17.384 380.882 17.1288 381.194 16.804C381.512 16.4725 381.76 16.0914 381.939 15.6605C382.118 15.2296 382.208 14.7723 382.208 14.2884C382.201 13.6454 382.049 13.0554 381.75 12.5185C381.452 11.9815 381.041 11.5507 380.517 11.2259C379.994 10.901 379.404 10.7386 378.748 10.7386ZM389.834 28V24.8977L397.083 18.1861C397.699 17.5895 398.216 17.0526 398.634 16.5753C399.058 16.098 399.38 15.6307 399.598 15.1733C399.817 14.7093 399.926 14.2088 399.926 13.6719C399.926 13.0753 399.791 12.5616 399.519 12.1307C399.247 11.6932 398.876 11.3584 398.405 11.1264C397.935 10.8878 397.401 10.7685 396.804 10.7685C396.181 10.7685 395.638 10.8944 395.174 11.1463C394.71 11.3982 394.352 11.7595 394.1 12.2301C393.848 12.7008 393.722 13.2609 393.722 13.9105H389.635C389.635 12.5781 389.937 11.4214 390.54 10.4403C391.143 9.45928 391.989 8.70028 393.076 8.16335C394.163 7.62642 395.416 7.35795 396.834 7.35795C398.292 7.35795 399.562 7.61648 400.642 8.13352C401.73 8.64394 402.575 9.35322 403.178 10.2614C403.781 11.1695 404.083 12.2102 404.083 13.3835C404.083 14.1525 403.93 14.9115 403.625 15.6605C403.327 16.4096 402.793 17.2415 402.025 18.1562C401.256 19.0644 400.172 20.1548 398.773 21.4276L395.8 24.3409V24.4801H404.351V28H389.834ZM415.286 28.2784C414.239 28.2718 413.228 28.0961 412.254 27.7514C411.286 27.4067 410.417 26.8466 409.648 26.071C408.879 25.2955 408.27 24.268 407.819 22.9886C407.375 21.7093 407.153 20.1383 407.153 18.2756C407.159 16.5653 407.355 15.0374 407.739 13.6918C408.13 12.3395 408.687 11.1927 409.41 10.2514C410.139 9.31013 411.011 8.59422 412.025 8.10369C413.039 7.60653 414.176 7.35795 415.435 7.35795C416.794 7.35795 417.994 7.62311 419.035 8.15341C420.076 8.67708 420.911 9.38968 421.54 10.2912C422.177 11.1927 422.561 12.2036 422.694 13.3239H418.448C418.282 12.6146 417.934 12.0578 417.404 11.6534C416.874 11.2491 416.218 11.0469 415.435 11.0469C414.11 11.0469 413.102 11.6236 412.413 12.777C411.73 13.9304 411.382 15.4981 411.369 17.4801H411.508C411.813 16.8769 412.224 16.3632 412.741 15.9389C413.264 15.508 413.858 15.1799 414.521 14.9545C415.19 14.7225 415.896 14.6065 416.638 14.6065C417.845 14.6065 418.919 14.8916 419.86 15.4616C420.801 16.0251 421.544 16.8007 422.087 17.7884C422.631 18.776 422.903 19.9062 422.903 21.179C422.903 22.5578 422.581 23.7841 421.938 24.858C421.302 25.9318 420.41 26.7737 419.263 27.3835C418.123 27.9867 416.798 28.285 415.286 28.2784ZM415.266 24.8977C415.929 24.8977 416.522 24.7386 417.046 24.4205C417.57 24.1023 417.981 23.6714 418.279 23.1278C418.577 22.5843 418.727 21.9744 418.727 21.2983C418.727 20.6222 418.577 20.0156 418.279 19.4787C417.987 18.9418 417.583 18.5142 417.066 18.196C416.549 17.8778 415.959 17.7188 415.296 17.7188C414.799 17.7188 414.338 17.8116 413.914 17.9972C413.496 18.1828 413.129 18.4413 412.81 18.7727C412.499 19.1042 412.254 19.4886 412.075 19.9261C411.896 20.357 411.806 20.8177 411.806 21.3082C411.806 21.9645 411.955 22.5644 412.254 23.108C412.558 23.6515 412.969 24.0857 413.487 24.4105C414.01 24.7353 414.603 24.8977 415.266 24.8977ZM429.751 25.2159L429.642 26.3097C429.556 27.1847 429.39 28.0563 429.145 28.9247C428.906 29.7997 428.654 30.5919 428.389 31.3011C428.13 32.0104 427.922 32.5672 427.762 32.9716H425.018C425.118 32.5805 425.253 32.0336 425.426 31.331C425.598 30.6349 425.761 29.8527 425.913 28.9844C426.065 28.116 426.162 27.2311 426.201 26.3295L426.251 25.2159H429.751ZM433.276 24.4205V21.0298L441.777 7.63636H444.701V12.3295H442.971L437.611 20.8111V20.9702H449.692V24.4205H433.276ZM443.05 28V23.3864L443.13 21.8849V7.63636H447.167V28H443.05ZM460.088 28.2784C458.603 28.2784 457.28 28.0232 456.12 27.5128C454.967 26.9957 454.056 26.2865 453.386 25.3849C452.723 24.4768 452.382 23.4295 452.362 22.2429H456.697C456.724 22.7401 456.886 23.1776 457.184 23.5554C457.489 23.9266 457.894 24.215 458.397 24.4205C458.901 24.6259 459.468 24.7287 460.098 24.7287C460.754 24.7287 461.334 24.6127 461.838 24.3807C462.342 24.1487 462.736 23.8272 463.021 23.4162C463.306 23.0052 463.449 22.5312 463.449 21.9943C463.449 21.4508 463.296 20.9702 462.991 20.5526C462.693 20.1283 462.262 19.7969 461.699 19.5582C461.142 19.3196 460.479 19.2003 459.71 19.2003H457.811V16.0384H459.71C460.359 16.0384 460.933 15.9257 461.43 15.7003C461.934 15.4749 462.325 15.1634 462.603 14.7656C462.882 14.3613 463.021 13.8906 463.021 13.3537C463.021 12.8433 462.898 12.3958 462.653 12.0114C462.414 11.6203 462.076 11.3153 461.639 11.0966C461.208 10.8778 460.704 10.7685 460.127 10.7685C459.544 10.7685 459.011 10.8745 458.527 11.0866C458.043 11.2921 457.655 11.5871 457.363 11.9716C457.072 12.3561 456.916 12.8068 456.896 13.3239H452.77C452.789 12.1506 453.124 11.1165 453.774 10.2216C454.423 9.3267 455.298 8.62737 456.399 8.12358C457.506 7.61316 458.755 7.35795 460.147 7.35795C461.553 7.35795 462.782 7.61316 463.836 8.12358C464.89 8.634 465.709 9.32339 466.292 10.1918C466.882 11.0535 467.174 12.0213 467.167 13.0952C467.174 14.2353 466.819 15.1866 466.103 15.9489C465.394 16.7112 464.469 17.1951 463.329 17.4006V17.5597C464.827 17.7519 465.967 18.2723 466.75 19.1207C467.538 19.9626 467.93 21.0166 467.923 22.2827C467.93 23.4427 467.595 24.4735 466.919 25.375C466.249 26.2765 465.324 26.9858 464.145 27.5028C462.965 28.0199 461.612 28.2784 460.088 28.2784ZM478.833 28.2784C477.786 28.2718 476.775 28.0961 475.8 27.7514C474.833 27.4067 473.964 26.8466 473.195 26.071C472.426 25.2955 471.817 24.268 471.366 22.9886C470.922 21.7093 470.7 20.1383 470.7 18.2756C470.706 16.5653 470.902 15.0374 471.286 13.6918C471.677 12.3395 472.234 11.1927 472.957 10.2514C473.686 9.31013 474.558 8.59422 475.572 8.10369C476.586 7.60653 477.723 7.35795 478.982 7.35795C480.341 7.35795 481.541 7.62311 482.582 8.15341C483.622 8.67708 484.458 9.38968 485.087 10.2912C485.724 11.1927 486.108 12.2036 486.241 13.3239H481.995C481.829 12.6146 481.481 12.0578 480.951 11.6534C480.421 11.2491 479.764 11.0469 478.982 11.0469C477.656 11.0469 476.649 11.6236 475.96 12.777C475.277 13.9304 474.929 15.4981 474.915 17.4801H475.055C475.36 16.8769 475.771 16.3632 476.288 15.9389C476.811 15.508 477.405 15.1799 478.067 14.9545C478.737 14.7225 479.443 14.6065 480.185 14.6065C481.392 14.6065 482.466 14.8916 483.407 15.4616C484.348 16.0251 485.091 16.8007 485.634 17.7884C486.178 18.776 486.45 19.9062 486.45 21.179C486.45 22.5578 486.128 23.7841 485.485 24.858C484.849 25.9318 483.957 26.7737 482.81 27.3835C481.67 27.9867 480.344 28.285 478.833 28.2784ZM478.813 24.8977C479.476 24.8977 480.069 24.7386 480.593 24.4205C481.117 24.1023 481.528 23.6714 481.826 23.1278C482.124 22.5843 482.273 21.9744 482.273 21.2983C482.273 20.6222 482.124 20.0156 481.826 19.4787C481.534 18.9418 481.13 18.5142 480.613 18.196C480.096 17.8778 479.506 17.7188 478.843 17.7188C478.346 17.7188 477.885 17.8116 477.461 17.9972C477.043 18.1828 476.675 18.4413 476.357 18.7727C476.046 19.1042 475.8 19.4886 475.621 19.9261C475.442 20.357 475.353 20.8177 475.353 21.3082C475.353 21.9645 475.502 22.5644 475.8 23.108C476.105 23.6515 476.516 24.0857 477.033 24.4105C477.557 24.7353 478.15 24.8977 478.813 24.8977Z" fill="#4D4D4D"/>
<path d="M350.409 54V42.3636H354.341C355.254 42.3636 356 42.5284 356.58 42.858C357.163 43.1837 357.595 43.625 357.875 44.1818C358.155 44.7386 358.295 45.3598 358.295 46.0455C358.295 46.7311 358.155 47.3542 357.875 47.9148C357.598 48.4754 357.17 48.9223 356.591 49.2557C356.011 49.5852 355.269 49.75 354.364 49.75H351.545V48.5H354.318C354.943 48.5 355.445 48.392 355.824 48.1761C356.203 47.9602 356.477 47.6686 356.648 47.3011C356.822 46.9299 356.909 46.5114 356.909 46.0455C356.909 45.5795 356.822 45.1629 356.648 44.7955C356.477 44.428 356.201 44.1402 355.818 43.9318C355.436 43.7197 354.928 43.6136 354.295 43.6136H351.818V54H350.409ZM362.952 54.2045C362.399 54.2045 361.897 54.1004 361.446 53.892C360.995 53.6799 360.637 53.375 360.372 52.9773C360.107 52.5758 359.974 52.0909 359.974 51.5227C359.974 51.0227 360.073 50.6174 360.27 50.3068C360.467 49.9924 360.73 49.7462 361.06 49.5682C361.389 49.3902 361.753 49.2576 362.151 49.1705C362.552 49.0795 362.955 49.0076 363.361 48.9545C363.891 48.8864 364.321 48.8352 364.651 48.8011C364.984 48.7633 365.226 48.7008 365.378 48.6136C365.533 48.5265 365.611 48.375 365.611 48.1591V48.1136C365.611 47.553 365.457 47.1174 365.151 46.8068C364.848 46.4962 364.387 46.3409 363.77 46.3409C363.13 46.3409 362.628 46.4811 362.264 46.7614C361.901 47.0417 361.645 47.3409 361.497 47.6591L360.224 47.2045C360.452 46.6742 360.755 46.2614 361.134 45.9659C361.516 45.6667 361.933 45.4583 362.384 45.3409C362.838 45.2197 363.285 45.1591 363.724 45.1591C364.005 45.1591 364.327 45.1932 364.69 45.2614C365.058 45.3258 365.412 45.4602 365.753 45.6648C366.098 45.8693 366.384 46.178 366.611 46.5909C366.838 47.0038 366.952 47.5568 366.952 48.25V54H365.611V52.8182H365.543C365.452 53.0076 365.3 53.2102 365.088 53.4261C364.876 53.642 364.594 53.8258 364.241 53.9773C363.889 54.1288 363.459 54.2045 362.952 54.2045ZM363.156 53C363.687 53 364.134 52.8958 364.497 52.6875C364.865 52.4792 365.141 52.2102 365.327 51.8807C365.516 51.5511 365.611 51.2045 365.611 50.8409V49.6136C365.554 49.6818 365.429 49.7443 365.236 49.8011C365.046 49.8542 364.827 49.9015 364.577 49.9432C364.33 49.9811 364.09 50.0152 363.855 50.0455C363.624 50.072 363.437 50.0947 363.293 50.1136C362.944 50.1591 362.618 50.233 362.315 50.3352C362.016 50.4337 361.774 50.5833 361.588 50.7841C361.406 50.9811 361.315 51.25 361.315 51.5909C361.315 52.0568 361.488 52.4091 361.832 52.6477C362.181 52.8826 362.622 53 363.156 53ZM369.95 57.2727C369.723 57.2727 369.52 57.2538 369.342 57.2159C369.164 57.1818 369.041 57.1477 368.973 57.1136L369.314 55.9318C369.64 56.0152 369.928 56.0455 370.178 56.0227C370.428 56 370.649 55.8883 370.842 55.6875C371.039 55.4905 371.219 55.1705 371.382 54.7273L371.632 54.0455L368.405 45.2727H369.859L372.268 52.2273H372.359L374.768 45.2727H376.223L372.518 55.2727C372.352 55.7235 372.145 56.0966 371.899 56.392C371.653 56.6913 371.367 56.9129 371.041 57.0568C370.719 57.2008 370.356 57.2727 369.95 57.2727ZM377.993 54V45.2727H379.288V46.6364H379.402C379.584 46.1705 379.877 45.8087 380.283 45.5511C380.688 45.2898 381.175 45.1591 381.743 45.1591C382.319 45.1591 382.798 45.2898 383.18 45.5511C383.567 45.8087 383.868 46.1705 384.084 46.6364H384.175C384.398 46.1856 384.733 45.8277 385.18 45.5625C385.627 45.2936 386.163 45.1591 386.788 45.1591C387.569 45.1591 388.207 45.4034 388.703 45.892C389.199 46.3769 389.447 47.1326 389.447 48.1591V54H388.107V48.1591C388.107 47.5152 387.93 47.0549 387.578 46.7784C387.226 46.5019 386.811 46.3636 386.334 46.3636C385.72 46.3636 385.245 46.5492 384.908 46.9205C384.571 47.2879 384.402 47.7538 384.402 48.3182V54H383.038V48.0227C383.038 47.5265 382.877 47.1269 382.555 46.8239C382.233 46.517 381.819 46.3636 381.311 46.3636C380.963 46.3636 380.637 46.4564 380.334 46.642C380.035 46.8277 379.792 47.0852 379.607 47.4148C379.425 47.7405 379.334 48.1174 379.334 48.5455V54H377.993ZM395.558 54.1818C394.717 54.1818 393.992 53.9962 393.382 53.625C392.776 53.25 392.308 52.7273 391.979 52.0568C391.653 51.3826 391.49 50.5985 391.49 49.7045C391.49 48.8106 391.653 48.0227 391.979 47.3409C392.308 46.6553 392.767 46.1212 393.354 45.7386C393.945 45.3523 394.634 45.1591 395.422 45.1591C395.876 45.1591 396.325 45.2348 396.768 45.3864C397.212 45.5379 397.615 45.7841 397.979 46.125C398.342 46.4621 398.632 46.9091 398.848 47.4659C399.064 48.0227 399.172 48.7083 399.172 49.5227V50.0909H392.445V48.9318H397.808C397.808 48.4394 397.71 48 397.513 47.6136C397.32 47.2273 397.043 46.9223 396.683 46.6989C396.327 46.4754 395.907 46.3636 395.422 46.3636C394.888 46.3636 394.426 46.4962 394.036 46.7614C393.649 47.0227 393.352 47.3636 393.143 47.7841C392.935 48.2045 392.831 48.6553 392.831 49.1364V49.9091C392.831 50.5682 392.945 51.1269 393.172 51.5852C393.403 52.0398 393.723 52.3864 394.132 52.625C394.541 52.8598 395.017 52.9773 395.558 52.9773C395.911 52.9773 396.229 52.928 396.513 52.8295C396.801 52.7273 397.049 52.5758 397.257 52.375C397.465 52.1705 397.626 51.9167 397.74 51.6136L399.036 51.9773C398.899 52.4167 398.67 52.803 398.348 53.1364C398.026 53.4659 397.628 53.7235 397.155 53.9091C396.681 54.0909 396.149 54.1818 395.558 54.1818ZM402.553 48.75V54H401.212V45.2727H402.507V46.6364H402.621C402.825 46.1932 403.136 45.8371 403.553 45.5682C403.969 45.2955 404.507 45.1591 405.166 45.1591C405.757 45.1591 406.274 45.2803 406.717 45.5227C407.161 45.7614 407.505 46.125 407.751 46.6136C407.998 47.0985 408.121 47.7121 408.121 48.4545V54H406.78V48.5455C406.78 47.8598 406.602 47.3258 406.246 46.9432C405.89 46.5568 405.401 46.3636 404.78 46.3636C404.352 46.3636 403.969 46.4564 403.632 46.642C403.299 46.8277 403.036 47.0985 402.842 47.4545C402.649 47.8106 402.553 48.2424 402.553 48.75ZM414.366 45.2727V46.4091H409.844V45.2727H414.366ZM411.162 43.1818H412.503V51.5C412.503 51.8788 412.558 52.1629 412.668 52.3523C412.781 52.5379 412.925 52.6629 413.099 52.7273C413.277 52.7879 413.465 52.8182 413.662 52.8182C413.81 52.8182 413.931 52.8106 414.026 52.7955C414.12 52.7765 414.196 52.7614 414.253 52.75L414.526 53.9545C414.435 53.9886 414.308 54.0227 414.145 54.0568C413.982 54.0947 413.776 54.1136 413.526 54.1136C413.147 54.1136 412.776 54.0322 412.412 53.8693C412.052 53.7064 411.753 53.4583 411.514 53.125C411.279 52.7917 411.162 52.3712 411.162 51.8636V43.1818ZM422.409 47.2273L421.205 47.5682C421.129 47.3674 421.017 47.1723 420.869 46.983C420.725 46.7898 420.528 46.6307 420.278 46.5057C420.028 46.3807 419.708 46.3182 419.318 46.3182C418.784 46.3182 418.339 46.4413 417.983 46.6875C417.631 46.9299 417.455 47.2386 417.455 47.6136C417.455 47.947 417.576 48.2102 417.818 48.4034C418.061 48.5966 418.439 48.7576 418.955 48.8864L420.25 49.2045C421.03 49.3939 421.612 49.6837 421.994 50.0739C422.377 50.4602 422.568 50.9583 422.568 51.5682C422.568 52.0682 422.424 52.5152 422.136 52.9091C421.852 53.303 421.455 53.6136 420.943 53.8409C420.432 54.0682 419.837 54.1818 419.159 54.1818C418.269 54.1818 417.532 53.9886 416.949 53.6023C416.366 53.2159 415.996 52.6515 415.841 51.9091L417.114 51.5909C417.235 52.0606 417.464 52.4129 417.801 52.6477C418.142 52.8826 418.587 53 419.136 53C419.761 53 420.258 52.8674 420.625 52.6023C420.996 52.3333 421.182 52.0114 421.182 51.6364C421.182 51.3333 421.076 51.0795 420.864 50.875C420.652 50.6667 420.326 50.5114 419.886 50.4091L418.432 50.0682C417.633 49.8788 417.045 49.5852 416.67 49.1875C416.299 48.786 416.114 48.2841 416.114 47.6818C416.114 47.1894 416.252 46.7538 416.528 46.375C416.809 45.9962 417.189 45.6989 417.67 45.483C418.155 45.267 418.705 45.1591 419.318 45.1591C420.182 45.1591 420.86 45.3485 421.352 45.7273C421.848 46.1061 422.201 46.6061 422.409 47.2273Z" fill="#717171"/>
</g>
</g>
<defs>
<clipPath id="clip0_1_1037">
<rect width="540" height="60" fill="white"/>
</clipPath>
<clipPath id="clip1_1_1037">
<rect width="191" height="60" fill="white" transform="translate(64)"/>
</clipPath>
<clipPath id="clip2_1_1037">
<rect width="191" height="60" fill="white" transform="translate(349)"/>
</clipPath>
</defs>
</svg>
