<svg width="540" height="60" viewBox="0 0 540 60" fill="none" xmlns="http://www.w3.org/2000/svg">
<g clip-path="url(#clip0_1_1021)">
<path d="M23.2958 35.5471L23.9031 35.0361C25.7082 33.5177 27.0026 31.4809 27.6109 29.2019C28.2193 26.9229 28.1121 24.5119 27.304 22.2959C26.4958 20.0799 25.0258 18.166 23.0932 16.8136C21.1605 15.4613 18.8588 14.7359 16.5 14.7359C14.1412 14.7359 11.8395 15.4613 9.90683 16.8136C7.9742 18.166 6.50416 20.0799 5.69601 22.2959C4.88786 24.5119 4.7807 26.9229 5.38905 29.2019C5.9974 31.4809 7.29184 33.5177 9.09687 35.0361L9.70422 35.5471L8.98114 35.8743C6.00797 37.2197 3.44949 39.3371 1.57168 42.0061L23.2958 35.5471ZM23.2958 35.5471L24.0189 35.8743M23.2958 35.5471L24.0189 35.8743M24.0189 35.8743C26.9922 37.2198 29.5507 39.3373 31.4286 42.0065L31.4357 42.0166L31.4434 42.0264C31.5892 42.2133 31.6956 42.4279 31.7561 42.6571C31.8165 42.8864 31.8297 43.1255 31.7949 43.36C31.7601 43.5945 31.678 43.8195 31.5537 44.0214C31.4293 44.2232 31.2652 44.3976 31.0713 44.5341C30.8775 44.6706 30.6579 44.7663 30.426 44.8153C30.194 44.8644 29.9545 44.8658 29.722 44.8195C29.4895 44.7732 29.2688 44.6801 29.0734 44.5459C28.8779 44.4118 28.7118 44.2393 28.585 44.0389L28.5786 44.0288L28.5717 44.019C27.211 42.0809 25.4036 40.4989 23.3025 39.4068C21.2013 38.3147 18.868 37.7446 16.5 37.7446C14.132 37.7446 11.7987 38.3147 9.69754 39.4068C7.59636 40.4989 5.78901 42.0809 4.42829 44.0189L4.42717 44.0205C4.26721 44.2503 4.05394 44.4378 3.80562 44.567C3.55731 44.6962 3.28136 44.7633 3.00144 44.7625L2.99837 44.7625C2.63936 44.7637 2.28907 44.652 1.997 44.4432L1.9946 44.4415M24.0189 35.8743L1.9946 44.4415M1.9946 44.4415C1.61602 44.1743 1.3589 43.7678 1.27961 43.3113C1.20035 42.8548 1.3053 42.3856 1.57144 42.0065L1.9946 44.4415ZM46.2901 44.4391L46.2901 44.4391C46.4787 44.3084 46.6394 44.1415 46.7628 43.9481C46.8863 43.7547 46.9701 43.5387 47.0094 43.3126C47.0486 43.0865 47.0425 42.8549 46.9915 42.6312C46.9405 42.4075 46.8454 42.1962 46.712 42.0096L46.7098 42.0065C44.832 39.3373 42.2734 37.2198 39.3001 35.8743L38.575 35.5462L39.1853 35.0353C40.9952 33.5204 42.2942 31.4845 42.9055 29.2049C43.5168 26.9252 43.4107 24.5125 42.6016 22.2953C41.7925 20.0781 40.3197 18.1641 38.3838 16.814C36.4479 15.4639 34.1429 14.7432 31.7827 14.75L31.7804 14.75C30.7301 14.7483 29.6846 14.8933 28.6744 15.1809L28.6654 15.1835L28.6654 15.1834C28.441 15.2428 28.2307 15.3462 28.0467 15.4876C27.8626 15.6291 27.7086 15.8057 27.5935 16.0073C27.4784 16.2088 27.4045 16.4313 27.3762 16.6616C27.3479 16.892 27.3657 17.1257 27.4285 17.3492C27.4914 17.5726 27.5981 17.7813 27.7424 17.9631L27.3639 18.2635L27.7424 17.9631C27.8867 18.1449 28.0657 18.2962 28.269 18.4081C28.4724 18.5201 28.6959 18.5905 28.9267 18.6152C29.1575 18.6399 29.3909 18.6185 29.6133 18.5521L29.6191 18.5504L29.6191 18.5504C30.3225 18.3498 31.0507 18.2486 31.7822 18.25M46.2901 44.4391L43.4437 44.3063L43.8524 44.0182C43.8523 44.018 43.8522 44.0178 43.852 44.0176C42.4885 42.0834 40.6808 40.5046 38.5805 39.414C36.4801 38.3232 34.1486 37.7526 31.7818 37.75H31.7812C31.3171 37.75 30.872 37.5656 30.5438 37.2374C30.2156 36.9093 30.0312 36.4641 30.0312 36C30.0312 35.5359 30.2156 35.0908 30.5438 34.7626C30.872 34.4344 31.3171 34.25 31.7812 34.25C33.903 34.25 35.9378 33.4072 37.4381 31.9069C38.9384 30.4066 39.7812 28.3717 39.7812 26.25C39.7812 24.1283 38.9384 22.0934 37.4381 20.5932C35.938 19.0931 33.9036 18.2503 31.7822 18.25M46.2901 44.4391L46.2843 44.4432M46.2901 44.4391L46.2843 44.4432M31.7822 18.25L31.7812 18.75V18.25C31.7816 18.25 31.7819 18.25 31.7822 18.25ZM39.5062 35.4188L39.7124 34.9632C39.7812 34.9944 39.8497 35.0259 39.918 35.0578C39.7838 35.181 39.6465 35.3014 39.5062 35.4188ZM39.5062 35.4188L39.8272 35.8022C39.8862 35.7527 39.9448 35.7028 40.0029 35.6523C39.8386 35.5721 39.6731 35.4943 39.5062 35.4188ZM46.2843 44.4432C45.9923 44.6519 45.6423 44.7636 45.2835 44.7625L46.2843 44.4432ZM9.84824 21.8054C8.96919 23.121 8.5 24.6678 8.5 26.25C8.5 28.3717 9.34285 30.4066 10.8431 31.9069C12.3434 33.4072 14.3783 34.25 16.5 34.25C18.0822 34.25 19.629 33.7808 20.9446 32.9018C22.2602 32.0227 23.2855 30.7733 23.891 29.3115C24.4965 27.8497 24.655 26.2411 24.3463 24.6893C24.0376 23.1374 23.2757 21.712 22.1569 20.5932C21.038 19.4743 19.6126 18.7124 18.0607 18.4037C16.5089 18.095 14.9003 18.2535 13.4385 18.859C11.9767 19.4645 10.7273 20.4899 9.84824 21.8054Z" fill="#4CAF4F" stroke="#4CAF4F"/>
<g clip-path="url(#clip1_1_1021)">
<path d="M65.6506 28V24.8977L72.8991 18.1861C73.5156 17.5895 74.0327 17.0526 74.4503 16.5753C74.8745 16.098 75.196 15.6307 75.4148 15.1733C75.6335 14.7093 75.7429 14.2088 75.7429 13.6719C75.7429 13.0753 75.607 12.5616 75.3352 12.1307C75.0634 11.6932 74.6922 11.3584 74.2216 11.1264C73.7509 10.8878 73.2173 10.7685 72.6207 10.7685C71.9976 10.7685 71.4541 10.8944 70.9901 11.1463C70.526 11.3982 70.1681 11.7595 69.9162 12.2301C69.6643 12.7008 69.5384 13.2609 69.5384 13.9105H65.4517C65.4517 12.5781 65.7533 11.4214 66.3565 10.4403C66.9598 9.45928 67.8049 8.70028 68.892 8.16335C69.9792 7.62642 71.232 7.35795 72.6506 7.35795C74.1089 7.35795 75.3783 7.61648 76.4588 8.13352C77.5459 8.64394 78.3911 9.35322 78.9943 10.2614C79.5975 11.1695 79.8991 12.2102 79.8991 13.3835C79.8991 14.1525 79.7467 14.9115 79.4418 15.6605C79.1435 16.4096 78.6098 17.2415 77.8409 18.1562C77.072 19.0644 75.9882 20.1548 74.5895 21.4276L71.6165 24.3409V24.4801H80.1676V28H65.6506ZM87.9308 25.2159L87.8214 26.3097C87.7352 27.1847 87.5695 28.0563 87.3242 28.9247C87.0856 29.7997 86.8337 30.5919 86.5685 31.3011C86.31 32.0104 86.1012 32.5672 85.9421 32.9716H83.1978C83.2972 32.5805 83.4331 32.0336 83.6055 31.331C83.7778 30.6349 83.9402 29.8527 84.0927 28.9844C84.2451 28.116 84.3413 27.2311 84.381 26.3295L84.4308 25.2159H87.9308ZM91.7638 28V24.8977L99.0124 18.1861C99.6289 17.5895 100.146 17.0526 100.564 16.5753C100.988 16.098 101.309 15.6307 101.528 15.1733C101.747 14.7093 101.856 14.2088 101.856 13.6719C101.856 13.0753 101.72 12.5616 101.449 12.1307C101.177 11.6932 100.806 11.3584 100.335 11.1264C99.8642 10.8878 99.3306 10.7685 98.734 10.7685C98.1109 10.7685 97.5674 10.8944 97.1033 11.1463C96.6393 11.3982 96.2814 11.7595 96.0295 12.2301C95.7776 12.7008 95.6516 13.2609 95.6516 13.9105H91.565C91.565 12.5781 91.8666 11.4214 92.4698 10.4403C93.073 9.45928 93.9182 8.70028 95.0053 8.16335C96.0924 7.62642 97.3453 7.35795 98.7638 7.35795C100.222 7.35795 101.492 7.61648 102.572 8.13352C103.659 8.64394 104.504 9.35322 105.108 10.2614C105.711 11.1695 106.012 12.2102 106.012 13.3835C106.012 14.1525 105.86 14.9115 105.555 15.6605C105.257 16.4096 104.723 17.2415 103.954 18.1562C103.185 19.0644 102.101 20.1548 100.703 21.4276L97.7298 24.3409V24.4801H106.281V28H91.7638ZM108.655 24.4205V21.0298L117.156 7.63636H120.08V12.3295H118.349L112.99 20.8111V20.9702H125.071V24.4205H108.655ZM118.429 28V23.3864L118.509 21.8849V7.63636H122.545V28H118.429ZM135.377 28.2784C133.972 28.2784 132.719 28.0199 131.619 27.5028C130.525 26.9858 129.656 26.2732 129.013 25.3651C128.371 24.4569 128.036 23.4162 128.009 22.2429H132.185C132.232 23.0317 132.563 23.6714 133.18 24.1619C133.796 24.6525 134.529 24.8977 135.377 24.8977C136.053 24.8977 136.65 24.7486 137.167 24.4503C137.691 24.1454 138.098 23.7244 138.39 23.1875C138.688 22.6439 138.837 22.0208 138.837 21.3182C138.837 20.6023 138.685 19.9725 138.38 19.429C138.082 18.8854 137.667 18.4612 137.137 18.1562C136.607 17.8513 136 17.6955 135.317 17.6889C134.721 17.6889 134.141 17.8116 133.577 18.0568C133.021 18.3021 132.586 18.6368 132.275 19.0611L128.447 18.375L129.411 7.63636H141.86V11.1562H132.961L132.434 16.2571H132.553C132.911 15.7533 133.451 15.3357 134.174 15.0043C134.897 14.6728 135.705 14.5071 136.6 14.5071C137.826 14.5071 138.92 14.7955 139.881 15.3722C140.843 15.9489 141.602 16.741 142.158 17.7486C142.715 18.7495 142.99 19.9029 142.984 21.2088C142.99 22.581 142.672 23.8007 142.029 24.8679C141.393 25.9285 140.501 26.7637 139.354 27.3736C138.214 27.9768 136.888 28.2784 135.377 28.2784ZM149.974 25.2159L149.864 26.3097C149.778 27.1847 149.612 28.0563 149.367 28.9247C149.129 29.7997 148.877 30.5919 148.612 31.3011C148.353 32.0104 148.144 32.5672 147.985 32.9716H145.241C145.34 32.5805 145.476 32.0336 145.648 31.331C145.821 30.6349 145.983 29.8527 146.136 28.9844C146.288 28.116 146.384 27.2311 146.424 26.3295L146.474 25.2159H149.974ZM160.678 28.2784C159.193 28.2784 157.87 28.0232 156.71 27.5128C155.557 26.9957 154.645 26.2865 153.976 25.3849C153.313 24.4768 152.972 23.4295 152.952 22.2429H157.287C157.313 22.7401 157.476 23.1776 157.774 23.5554C158.079 23.9266 158.483 24.215 158.987 24.4205C159.491 24.6259 160.058 24.7287 160.688 24.7287C161.344 24.7287 161.924 24.6127 162.428 24.3807C162.931 24.1487 163.326 23.8272 163.611 23.4162C163.896 23.0052 164.038 22.5312 164.038 21.9943C164.038 21.4508 163.886 20.9702 163.581 20.5526C163.283 20.1283 162.852 19.7969 162.288 19.5582C161.732 19.3196 161.069 19.2003 160.3 19.2003H158.401V16.0384H160.3C160.949 16.0384 161.523 15.9257 162.02 15.7003C162.524 15.4749 162.915 15.1634 163.193 14.7656C163.472 14.3613 163.611 13.8906 163.611 13.3537C163.611 12.8433 163.488 12.3958 163.243 12.0114C163.004 11.6203 162.666 11.3153 162.229 11.0966C161.798 10.8778 161.294 10.7685 160.717 10.7685C160.134 10.7685 159.6 10.8745 159.116 11.0866C158.633 11.2921 158.245 11.5871 157.953 11.9716C157.661 12.3561 157.506 12.8068 157.486 13.3239H153.359C153.379 12.1506 153.714 11.1165 154.364 10.2216C155.013 9.3267 155.888 8.62737 156.989 8.12358C158.096 7.61316 159.345 7.35795 160.737 7.35795C162.143 7.35795 163.372 7.61316 164.426 8.12358C165.48 8.634 166.299 9.32339 166.882 10.1918C167.472 11.0535 167.764 12.0213 167.757 13.0952C167.764 14.2353 167.409 15.1866 166.693 15.9489C165.984 16.7112 165.059 17.1951 163.919 17.4006V17.5597C165.417 17.7519 166.557 18.2723 167.339 19.1207C168.128 19.9626 168.519 21.0166 168.513 22.2827C168.519 23.4427 168.185 24.4735 167.509 25.375C166.839 26.2765 165.914 26.9858 164.734 27.5028C163.554 28.0199 162.202 28.2784 160.678 28.2784ZM171.299 24.4205V21.0298L179.801 7.63636H182.724V12.3295H180.994L175.635 20.8111V20.9702H187.716V24.4205H171.299ZM181.074 28V23.3864L181.153 21.8849V7.63636H185.19V28H181.074ZM199.17 7.63636V28H194.865V11.723H194.745L190.082 14.6463V10.8281L195.123 7.63636H199.17Z" fill="#4D4D4D"/>
<path d="M65.4091 42.3636H67.0909L71.0455 52.0227H71.1818L75.1364 42.3636H76.8182V54H75.5V45.1591H75.3864L71.75 54H70.4773L66.8409 45.1591H66.7273V54H65.4091V42.3636ZM83.1207 54.1818C82.2798 54.1818 81.5545 53.9962 80.9446 53.625C80.3385 53.25 79.8707 52.7273 79.5412 52.0568C79.2154 51.3826 79.0526 50.5985 79.0526 49.7045C79.0526 48.8106 79.2154 48.0227 79.5412 47.3409C79.8707 46.6553 80.3291 46.1212 80.9162 45.7386C81.5071 45.3523 82.1965 45.1591 82.9844 45.1591C83.4389 45.1591 83.8878 45.2348 84.331 45.3864C84.7741 45.5379 85.1776 45.7841 85.5412 46.125C85.9048 46.4621 86.1946 46.9091 86.4105 47.4659C86.6264 48.0227 86.7344 48.7083 86.7344 49.5227V50.0909H80.0071V48.9318H85.3707C85.3707 48.4394 85.2723 48 85.0753 47.6136C84.8821 47.2273 84.6056 46.9223 84.2457 46.6989C83.8897 46.4754 83.4692 46.3636 82.9844 46.3636C82.4503 46.3636 81.9882 46.4962 81.598 46.7614C81.2116 47.0227 80.9143 47.3636 80.706 47.7841C80.4976 48.2045 80.3935 48.6553 80.3935 49.1364V49.9091C80.3935 50.5682 80.5071 51.1269 80.7344 51.5852C80.9654 52.0398 81.2855 52.3864 81.6946 52.625C82.1037 52.8598 82.5791 52.9773 83.1207 52.9773C83.473 52.9773 83.7912 52.928 84.0753 52.8295C84.3632 52.7273 84.6113 52.5758 84.8196 52.375C85.0279 52.1705 85.1889 51.9167 85.3026 51.6136L86.598 51.9773C86.4616 52.4167 86.2325 52.803 85.9105 53.1364C85.5885 53.4659 85.1908 53.7235 84.7173 53.9091C84.2438 54.0909 83.7116 54.1818 83.1207 54.1818ZM88.7741 54V45.2727H90.0696V46.6364H90.1832C90.3651 46.1705 90.6586 45.8087 91.0639 45.5511C91.4692 45.2898 91.956 45.1591 92.5241 45.1591C93.0999 45.1591 93.5791 45.2898 93.9616 45.5511C94.348 45.8087 94.6491 46.1705 94.8651 46.6364H94.956C95.1795 46.1856 95.5147 45.8277 95.9616 45.5625C96.4086 45.2936 96.9446 45.1591 97.5696 45.1591C98.3499 45.1591 98.9882 45.4034 99.4844 45.892C99.9806 46.3769 100.229 47.1326 100.229 48.1591V54H98.8878V48.1591C98.8878 47.5152 98.7116 47.0549 98.3594 46.7784C98.0071 46.5019 97.5923 46.3636 97.1151 46.3636C96.5014 46.3636 96.026 46.5492 95.6889 46.9205C95.3518 47.2879 95.1832 47.7538 95.1832 48.3182V54H93.8196V48.0227C93.8196 47.5265 93.6586 47.1269 93.3366 46.8239C93.0147 46.517 92.5999 46.3636 92.0923 46.3636C91.7438 46.3636 91.4181 46.4564 91.1151 46.642C90.8158 46.8277 90.5734 47.0852 90.3878 47.4148C90.206 47.7405 90.1151 48.1174 90.1151 48.5455V54H88.7741ZM102.862 54V42.3636H104.203V46.6591H104.317C104.415 46.5076 104.552 46.3144 104.726 46.0795C104.904 45.8409 105.158 45.6288 105.487 45.4432C105.821 45.2538 106.271 45.1591 106.839 45.1591C107.574 45.1591 108.222 45.3428 108.783 45.7102C109.343 46.0777 109.781 46.5985 110.095 47.2727C110.41 47.947 110.567 48.7424 110.567 49.6591C110.567 50.5833 110.41 51.3845 110.095 52.0625C109.781 52.7367 109.345 53.2595 108.788 53.6307C108.232 53.9981 107.589 54.1818 106.862 54.1818C106.302 54.1818 105.853 54.089 105.516 53.9034C105.179 53.714 104.919 53.5 104.737 53.2614C104.555 53.0189 104.415 52.8182 104.317 52.6591H104.158V54H102.862ZM104.18 49.6364C104.18 50.2955 104.277 50.8769 104.47 51.3807C104.663 51.8807 104.946 52.2727 105.317 52.5568C105.688 52.8371 106.143 52.9773 106.68 52.9773C107.241 52.9773 107.709 52.8295 108.084 52.5341C108.463 52.2348 108.747 51.8333 108.936 51.3295C109.129 50.822 109.226 50.2576 109.226 49.6364C109.226 49.0227 109.131 48.4697 108.942 47.9773C108.756 47.4811 108.474 47.089 108.095 46.8011C107.72 46.5095 107.249 46.3636 106.68 46.3636C106.135 46.3636 105.677 46.5019 105.305 46.7784C104.934 47.0511 104.654 47.4337 104.464 47.9261C104.275 48.4148 104.18 48.9848 104.18 49.6364ZM116.277 54.1818C115.436 54.1818 114.711 53.9962 114.101 53.625C113.495 53.25 113.027 52.7273 112.697 52.0568C112.372 51.3826 112.209 50.5985 112.209 49.7045C112.209 48.8106 112.372 48.0227 112.697 47.3409C113.027 46.6553 113.485 46.1212 114.072 45.7386C114.663 45.3523 115.353 45.1591 116.141 45.1591C116.595 45.1591 117.044 45.2348 117.487 45.3864C117.93 45.5379 118.334 45.7841 118.697 46.125C119.061 46.4621 119.351 46.9091 119.567 47.4659C119.783 48.0227 119.891 48.7083 119.891 49.5227V50.0909H113.163V48.9318H118.527C118.527 48.4394 118.429 48 118.232 47.6136C118.038 47.2273 117.762 46.9223 117.402 46.6989C117.046 46.4754 116.625 46.3636 116.141 46.3636C115.607 46.3636 115.144 46.4962 114.754 46.7614C114.368 47.0227 114.071 47.3636 113.862 47.7841C113.654 48.2045 113.55 48.6553 113.55 49.1364V49.9091C113.55 50.5682 113.663 51.1269 113.891 51.5852C114.122 52.0398 114.442 52.3864 114.851 52.625C115.26 52.8598 115.735 52.9773 116.277 52.9773C116.629 52.9773 116.947 52.928 117.232 52.8295C117.519 52.7273 117.768 52.5758 117.976 52.375C118.184 52.1705 118.345 51.9167 118.459 51.6136L119.754 51.9773C119.618 52.4167 119.389 52.803 119.067 53.1364C118.745 53.4659 118.347 53.7235 117.874 53.9091C117.4 54.0909 116.868 54.1818 116.277 54.1818ZM121.93 54V45.2727H123.226V46.5909H123.317C123.476 46.1591 123.764 45.8087 124.18 45.5398C124.597 45.2708 125.067 45.1364 125.589 45.1364C125.688 45.1364 125.811 45.1383 125.959 45.142C126.107 45.1458 126.218 45.1515 126.294 45.1591V46.5227C126.249 46.5114 126.144 46.4943 125.982 46.4716C125.822 46.4451 125.654 46.4318 125.476 46.4318C125.052 46.4318 124.673 46.5208 124.339 46.6989C124.01 46.8731 123.749 47.1155 123.555 47.4261C123.366 47.733 123.271 48.0833 123.271 48.4773V54H121.93ZM134.065 47.2273L132.861 47.5682C132.785 47.3674 132.673 47.1723 132.526 46.983C132.382 46.7898 132.185 46.6307 131.935 46.5057C131.685 46.3807 131.365 46.3182 130.974 46.3182C130.44 46.3182 129.995 46.4413 129.639 46.6875C129.287 46.9299 129.111 47.2386 129.111 47.6136C129.111 47.947 129.232 48.2102 129.474 48.4034C129.717 48.5966 130.096 48.7576 130.611 48.8864L131.906 49.2045C132.687 49.3939 133.268 49.6837 133.651 50.0739C134.033 50.4602 134.224 50.9583 134.224 51.5682C134.224 52.0682 134.08 52.5152 133.793 52.9091C133.509 53.303 133.111 53.6136 132.599 53.8409C132.088 54.0682 131.493 54.1818 130.815 54.1818C129.925 54.1818 129.188 53.9886 128.605 53.6023C128.022 53.2159 127.652 52.6515 127.497 51.9091L128.77 51.5909C128.891 52.0606 129.12 52.4129 129.457 52.6477C129.798 52.8826 130.243 53 130.793 53C131.418 53 131.914 52.8674 132.281 52.6023C132.652 52.3333 132.838 52.0114 132.838 51.6364C132.838 51.3333 132.732 51.0795 132.52 50.875C132.308 50.6667 131.982 50.5114 131.543 50.4091L130.088 50.0682C129.289 49.8788 128.702 49.5852 128.327 49.1875C127.955 48.786 127.77 48.2841 127.77 47.6818C127.77 47.1894 127.908 46.7538 128.185 46.375C128.465 45.9962 128.846 45.6989 129.327 45.483C129.812 45.267 130.361 45.1591 130.974 45.1591C131.838 45.1591 132.516 45.3485 133.009 45.7273C133.505 46.1061 133.857 46.6061 134.065 47.2273Z" fill="#717171"/>
</g>
<path d="M309.903 24.3939L309.903 29.4168V29.4168V29.4752C309.903 29.5918 309.918 29.7048 309.947 29.8125L309.899 30.6303L309.896 30.6742C309.885 30.8659 309.81 31.0335 309.684 31.1598L311.127 30.2149C311.044 30.2014 310.962 30.1722 310.881 30.1277L310.484 29.9119V29.4752V29.4168V24.3939M309.903 24.3939V24.3938L310.194 24.3939L310.484 24.3939M309.903 24.3939C309.903 24.5543 310.034 24.6843 310.194 24.6843C310.354 24.6843 310.484 24.554 310.484 24.3939M309.903 24.3939H310.194H310.484M304.283 23.9449L304.283 23.9449L304.283 23.9449ZM304.283 23.9449C304.07 24.316 303.559 24.4545 303.185 24.2399L304.283 23.9449ZM302.852 24.8176L302.852 24.8172C302.577 24.6588 302.379 24.3994 302.297 24.0954L302.297 24.0949L302.297 24.0948L302.297 24.0933C302.23 23.8428 302.247 23.5807 302.343 23.3432V23.1486C302.172 23.4436 302.126 23.7878 302.215 24.117C302.303 24.4459 302.514 24.7208 302.809 24.8921L302.852 24.8176ZM310.096 31.571L310.156 31.631L310.096 31.571L310.095 31.5717C309.844 31.822 309.508 31.9601 309.154 31.9601C309.154 31.9601 309.154 31.9601 309.154 31.9601C308.674 31.9601 308.253 31.7049 308.019 31.323C307.995 31.3353 307.971 31.3471 307.946 31.3586L310.096 31.571ZM302.919 23.4836C302.838 23.6253 302.816 23.7867 302.859 23.944C302.859 23.944 302.859 23.9441 302.859 23.9441L302.859 23.9443L302.859 23.9449C302.901 24.1012 302.999 24.2308 303.142 24.3142C303.142 24.3143 303.142 24.3143 303.142 24.3143L302.919 23.4836Z" fill="#4CAF4F" stroke="#4CAF4F" stroke-width="1.33333"/>
<path d="M301.125 36.7918C300.947 36.8993 300.716 36.8413 300.609 36.663C300.502 36.4849 300.56 36.2537 300.738 36.1468L301.125 36.7918ZM296.747 32.4271C296.761 32.4007 296.775 32.3761 296.788 32.3532C296.839 32.2609 296.874 32.1984 296.888 32.1733L296.964 32.2132C296.917 32.2976 296.871 32.3803 296.826 32.4615C296.799 32.4516 296.773 32.4402 296.747 32.4271ZM307.155 34.7211C307.308 34.6297 307.415 34.4851 307.458 34.3133C307.501 34.1418 307.474 33.9635 307.383 33.8113L307.155 34.7211Z" fill="#4CAF4F" stroke="#4CAF4F" stroke-width="1.33333"/>
<path d="M312.853 34.0933C312.759 34.035 312.673 33.966 312.598 33.888L311.878 33.5117L311.878 33.5116L311.838 33.4907C311.724 33.4311 311.608 33.4029 311.496 33.4026L312.853 34.0933ZM311.172 32.862C311.172 32.862 311.172 32.8619 311.172 32.8619L311.227 33.0842L311.227 33.0842L311.313 33.4256L311.312 33.4256L311.172 32.862ZM315.387 39.7857C315.387 39.7856 315.387 39.7855 315.387 39.7854L315.387 39.7857ZM310.845 36.1872L310.846 36.188L310.845 36.1872Z" fill="#4CAF4F" stroke="#4CAF4F" stroke-width="1.33333"/>
<g clip-path="url(#clip2_1_1021)">
<path d="M350.342 24.4205V21.0298L358.844 7.63636H361.767V12.3295H360.037L354.678 20.8111V20.9702H366.759V24.4205H350.342ZM360.116 28V23.3864L360.196 21.8849V7.63636H364.233V28H360.116ZM377.442 28.2784C376.395 28.2718 375.384 28.0961 374.41 27.7514C373.442 27.4067 372.574 26.8466 371.805 26.071C371.036 25.2955 370.426 24.268 369.975 22.9886C369.531 21.7093 369.309 20.1383 369.309 18.2756C369.316 16.5653 369.511 15.0374 369.896 13.6918C370.287 12.3395 370.844 11.1927 371.566 10.2514C372.295 9.31013 373.167 8.59422 374.181 8.10369C375.195 7.60653 376.332 7.35795 377.592 7.35795C378.951 7.35795 380.15 7.62311 381.191 8.15341C382.232 8.67708 383.067 9.38968 383.697 10.2912C384.333 11.1927 384.718 12.2036 384.85 13.3239H380.604C380.439 12.6146 380.091 12.0578 379.56 11.6534C379.03 11.2491 378.374 11.0469 377.592 11.0469C376.266 11.0469 375.258 11.6236 374.569 12.777C373.886 13.9304 373.538 15.4981 373.525 17.4801H373.664C373.969 16.8769 374.38 16.3632 374.897 15.9389C375.421 15.508 376.014 15.1799 376.677 14.9545C377.346 14.7225 378.052 14.6065 378.795 14.6065C380.001 14.6065 381.075 14.8916 382.016 15.4616C382.958 16.0251 383.7 16.8007 384.244 17.7884C384.787 18.776 385.059 19.9062 385.059 21.179C385.059 22.5578 384.737 23.7841 384.094 24.858C383.458 25.9318 382.567 26.7737 381.42 27.3835C380.28 27.9867 378.954 28.285 377.442 28.2784ZM377.423 24.8977C378.085 24.8977 378.679 24.7386 379.202 24.4205C379.726 24.1023 380.137 23.6714 380.435 23.1278C380.734 22.5843 380.883 21.9744 380.883 21.2983C380.883 20.6222 380.734 20.0156 380.435 19.4787C380.144 18.9418 379.739 18.5142 379.222 18.196C378.705 17.8778 378.115 17.7188 377.452 17.7188C376.955 17.7188 376.495 17.8116 376.07 17.9972C375.653 18.1828 375.285 18.4413 374.967 18.7727C374.655 19.1042 374.41 19.4886 374.231 19.9261C374.052 20.357 373.962 20.8177 373.962 21.3082C373.962 21.9645 374.112 22.5644 374.41 23.108C374.715 23.6515 375.126 24.0857 375.643 24.4105C376.166 24.7353 376.76 24.8977 377.423 24.8977ZM391.907 25.2159L391.798 26.3097C391.712 27.1847 391.546 28.0563 391.301 28.9247C391.062 29.7997 390.81 30.5919 390.545 31.3011C390.287 32.0104 390.078 32.5672 389.919 32.9716H387.174C387.274 32.5805 387.41 32.0336 387.582 31.331C387.754 30.6349 387.917 29.8527 388.069 28.9844C388.222 28.116 388.318 27.2311 388.358 26.3295L388.407 25.2159H391.907ZM402.611 28.2784C401.126 28.2784 399.804 28.0232 398.644 27.5128C397.49 26.9957 396.579 26.2865 395.909 25.3849C395.247 24.4768 394.905 23.4295 394.885 22.2429H399.221C399.247 22.7401 399.409 23.1776 399.708 23.5554C400.013 23.9266 400.417 24.215 400.921 24.4205C401.425 24.6259 401.991 24.7287 402.621 24.7287C403.277 24.7287 403.857 24.6127 404.361 24.3807C404.865 24.1487 405.259 23.8272 405.544 23.4162C405.829 23.0052 405.972 22.5312 405.972 21.9943C405.972 21.4508 405.819 20.9702 405.515 20.5526C405.216 20.1283 404.785 19.7969 404.222 19.5582C403.665 19.3196 403.002 19.2003 402.233 19.2003H400.334V16.0384H402.233C402.883 16.0384 403.456 15.9257 403.953 15.7003C404.457 15.4749 404.848 15.1634 405.127 14.7656C405.405 14.3613 405.544 13.8906 405.544 13.3537C405.544 12.8433 405.422 12.3958 405.176 12.0114C404.938 11.6203 404.6 11.3153 404.162 11.0966C403.731 10.8778 403.228 10.7685 402.651 10.7685C402.068 10.7685 401.534 10.8745 401.05 11.0866C400.566 11.2921 400.178 11.5871 399.887 11.9716C399.595 12.3561 399.439 12.8068 399.419 13.3239H395.293C395.313 12.1506 395.648 11.1165 396.297 10.2216C396.947 9.3267 397.822 8.62737 398.922 8.12358C400.029 7.61316 401.279 7.35795 402.671 7.35795C404.076 7.35795 405.306 7.61316 406.36 8.12358C407.414 8.634 408.232 9.32339 408.816 10.1918C409.406 11.0535 409.697 12.0213 409.691 13.0952C409.697 14.2353 409.343 15.1866 408.627 15.9489C407.917 16.7112 406.993 17.1951 405.853 17.4006V17.5597C407.351 17.7519 408.491 18.2723 409.273 19.1207C410.062 19.9626 410.453 21.0166 410.446 22.2827C410.453 23.4427 410.118 24.4735 409.442 25.375C408.773 26.2765 407.848 26.9858 406.668 27.5028C405.488 28.0199 404.136 28.2784 402.611 28.2784ZM413.541 28V24.8977L420.79 18.1861C421.406 17.5895 421.923 17.0526 422.341 16.5753C422.765 16.098 423.087 15.6307 423.305 15.1733C423.524 14.7093 423.634 14.2088 423.634 13.6719C423.634 13.0753 423.498 12.5616 423.226 12.1307C422.954 11.6932 422.583 11.3584 422.112 11.1264C421.642 10.8878 421.108 10.7685 420.511 10.7685C419.888 10.7685 419.345 10.8944 418.881 11.1463C418.417 11.3982 418.059 11.7595 417.807 12.2301C417.555 12.7008 417.429 13.2609 417.429 13.9105H413.342C413.342 12.5781 413.644 11.4214 414.247 10.4403C414.85 9.45928 415.696 8.70028 416.783 8.16335C417.87 7.62642 419.123 7.35795 420.541 7.35795C422 7.35795 423.269 7.61648 424.349 8.13352C425.437 8.64394 426.282 9.35322 426.885 10.2614C427.488 11.1695 427.79 12.2102 427.79 13.3835C427.79 14.1525 427.637 14.9115 427.332 15.6605C427.034 16.4096 426.5 17.2415 425.732 18.1562C424.963 19.0644 423.879 20.1548 422.48 21.4276L419.507 24.3409V24.4801H428.058V28H413.541ZM438.775 28.2784C437.243 28.2784 435.881 28.0298 434.688 27.5327C433.501 27.0289 432.57 26.3428 431.894 25.4744C431.218 24.6061 430.88 23.6217 430.88 22.5213C430.88 21.6728 431.072 20.8939 431.456 20.1847C431.847 19.4688 432.378 18.8755 433.047 18.4048C433.717 17.9276 434.466 17.6226 435.294 17.4901V17.3509C434.207 17.1321 433.326 16.6051 432.65 15.7699C431.973 14.928 431.635 13.9503 431.635 12.8366C431.635 11.7827 431.944 10.8447 432.56 10.0227C433.176 9.19413 434.022 8.54451 435.096 8.07386C436.176 7.59659 437.402 7.35795 438.775 7.35795C440.147 7.35795 441.37 7.59659 442.444 8.07386C443.524 8.55114 444.373 9.20407 444.989 10.0327C445.605 10.8546 445.917 11.7893 445.924 12.8366C445.917 13.9569 445.572 14.9347 444.89 15.7699C444.207 16.6051 443.332 17.1321 442.265 17.3509V17.4901C443.08 17.6226 443.819 17.9276 444.482 18.4048C445.151 18.8755 445.682 19.4688 446.073 20.1847C446.471 20.8939 446.673 21.6728 446.679 22.5213C446.673 23.6217 446.331 24.6061 445.655 25.4744C444.979 26.3428 444.044 27.0289 442.851 27.5327C441.665 28.0298 440.306 28.2784 438.775 28.2784ZM438.775 25.1165C439.457 25.1165 440.054 24.9938 440.564 24.7486C441.075 24.4967 441.472 24.152 441.757 23.7145C442.049 23.2704 442.195 22.7599 442.195 22.1832C442.195 21.5933 442.046 21.0729 441.748 20.6222C441.449 20.1648 441.045 19.8068 440.534 19.5483C440.024 19.2831 439.437 19.1506 438.775 19.1506C438.118 19.1506 437.532 19.2831 437.015 19.5483C436.498 19.8068 436.09 20.1648 435.792 20.6222C435.5 21.0729 435.354 21.5933 435.354 22.1832C435.354 22.7599 435.497 23.2704 435.782 23.7145C436.067 24.152 436.468 24.4967 436.985 24.7486C437.502 24.9938 438.098 25.1165 438.775 25.1165ZM438.775 16.0185C439.345 16.0185 439.852 15.9025 440.296 15.6705C440.74 15.4384 441.088 15.117 441.34 14.706C441.592 14.295 441.718 13.821 441.718 13.2841C441.718 12.7538 441.592 12.2898 441.34 11.892C441.088 11.4877 440.743 11.1728 440.306 10.9474C439.868 10.7154 439.358 10.5994 438.775 10.5994C438.198 10.5994 437.687 10.7154 437.243 10.9474C436.799 11.1728 436.451 11.4877 436.199 11.892C435.954 12.2898 435.831 12.7538 435.831 13.2841C435.831 13.821 435.957 14.295 436.209 14.706C436.461 15.117 436.809 15.4384 437.253 15.6705C437.697 15.9025 438.204 16.0185 438.775 16.0185Z" fill="#4D4D4D"/>
<path d="M359.773 46H358.364C358.28 45.5947 358.134 45.2386 357.926 44.9318C357.722 44.625 357.472 44.3674 357.176 44.1591C356.884 43.947 356.561 43.7879 356.205 43.6818C355.848 43.5758 355.477 43.5227 355.091 43.5227C354.386 43.5227 353.748 43.7008 353.176 44.0568C352.608 44.4129 352.155 44.9375 351.818 45.6307C351.485 46.3239 351.318 47.1742 351.318 48.1818C351.318 49.1894 351.485 50.0398 351.818 50.733C352.155 51.4261 352.608 51.9508 353.176 52.3068C353.748 52.6629 354.386 52.8409 355.091 52.8409C355.477 52.8409 355.848 52.7879 356.205 52.6818C356.561 52.5758 356.884 52.4186 357.176 52.2102C357.472 51.9981 357.722 51.7386 357.926 51.4318C358.134 51.1212 358.28 50.7652 358.364 50.3636H359.773C359.667 50.9583 359.473 51.4905 359.193 51.9602C358.913 52.4299 358.564 52.8295 358.148 53.1591C357.731 53.4848 357.263 53.733 356.744 53.9034C356.229 54.0739 355.678 54.1591 355.091 54.1591C354.098 54.1591 353.216 53.9167 352.443 53.4318C351.67 52.947 351.063 52.2576 350.619 51.3636C350.176 50.4697 349.955 49.4091 349.955 48.1818C349.955 46.9545 350.176 45.8939 350.619 45C351.063 44.1061 351.67 43.4167 352.443 42.9318C353.216 42.447 354.098 42.2045 355.091 42.2045C355.678 42.2045 356.229 42.2898 356.744 42.4602C357.263 42.6307 357.731 42.8807 358.148 43.2102C358.564 43.536 358.913 43.9337 359.193 44.4034C359.473 44.8693 359.667 45.4015 359.773 46ZM363.209 42.3636V54H361.868V42.3636H363.209ZM371.165 50.4318V45.2727H372.506V54H371.165V52.5227H371.074C370.869 52.9659 370.551 53.3428 370.119 53.6534C369.688 53.9602 369.142 54.1136 368.483 54.1136C367.938 54.1136 367.453 53.9943 367.028 53.7557C366.604 53.5133 366.271 53.1496 366.028 52.6648C365.786 52.1761 365.665 51.5606 365.665 50.8182V45.2727H367.006V50.7273C367.006 51.3636 367.184 51.8712 367.54 52.25C367.9 52.6288 368.358 52.8182 368.915 52.8182C369.248 52.8182 369.587 52.733 369.932 52.5625C370.28 52.392 370.572 52.1307 370.807 51.7784C371.045 51.4261 371.165 50.9773 371.165 50.4318ZM375.143 54V42.3636H376.484V46.6591H376.598C376.696 46.5076 376.833 46.3144 377.007 46.0795C377.185 45.8409 377.439 45.6288 377.768 45.4432C378.102 45.2538 378.553 45.1591 379.121 45.1591C379.856 45.1591 380.503 45.3428 381.064 45.7102C381.625 46.0777 382.062 46.5985 382.376 47.2727C382.691 47.947 382.848 48.7424 382.848 49.6591C382.848 50.5833 382.691 51.3845 382.376 52.0625C382.062 52.7367 381.626 53.2595 381.07 53.6307C380.513 53.9981 379.871 54.1818 379.143 54.1818C378.583 54.1818 378.134 54.089 377.797 53.9034C377.46 53.714 377.2 53.5 377.018 53.2614C376.837 53.0189 376.696 52.8182 376.598 52.6591H376.439V54H375.143ZM376.462 49.6364C376.462 50.2955 376.558 50.8769 376.751 51.3807C376.945 51.8807 377.227 52.2727 377.598 52.5568C377.969 52.8371 378.424 52.9773 378.962 52.9773C379.522 52.9773 379.99 52.8295 380.365 52.5341C380.744 52.2348 381.028 51.8333 381.217 51.3295C381.411 50.822 381.507 50.2576 381.507 49.6364C381.507 49.0227 381.412 48.4697 381.223 47.9773C381.037 47.4811 380.755 47.089 380.376 46.8011C380.001 46.5095 379.53 46.3636 378.962 46.3636C378.416 46.3636 377.958 46.5019 377.587 46.7784C377.215 47.0511 376.935 47.4337 376.746 47.9261C376.556 48.4148 376.462 48.9848 376.462 49.6364ZM391.081 47.2273L389.876 47.5682C389.801 47.3674 389.689 47.1723 389.541 46.983C389.397 46.7898 389.2 46.6307 388.95 46.5057C388.7 46.3807 388.38 46.3182 387.99 46.3182C387.456 46.3182 387.011 46.4413 386.655 46.6875C386.303 46.9299 386.126 47.2386 386.126 47.6136C386.126 47.947 386.248 48.2102 386.49 48.4034C386.732 48.5966 387.111 48.7576 387.626 48.8864L388.922 49.2045C389.702 49.3939 390.284 49.6837 390.666 50.0739C391.049 50.4602 391.24 50.9583 391.24 51.5682C391.24 52.0682 391.096 52.5152 390.808 52.9091C390.524 53.303 390.126 53.6136 389.615 53.8409C389.104 54.0682 388.509 54.1818 387.831 54.1818C386.941 54.1818 386.204 53.9886 385.621 53.6023C385.037 53.2159 384.668 52.6515 384.513 51.9091L385.786 51.5909C385.907 52.0606 386.136 52.4129 386.473 52.6477C386.814 52.8826 387.259 53 387.808 53C388.433 53 388.929 52.8674 389.297 52.6023C389.668 52.3333 389.854 52.0114 389.854 51.6364C389.854 51.3333 389.748 51.0795 389.536 50.875C389.323 50.6667 388.998 50.5114 388.558 50.4091L387.104 50.0682C386.304 49.8788 385.717 49.5852 385.342 49.1875C384.971 48.786 384.786 48.2841 384.786 47.6818C384.786 47.1894 384.924 46.7538 385.2 46.375C385.481 45.9962 385.861 45.6989 386.342 45.483C386.827 45.267 387.376 45.1591 387.99 45.1591C388.854 45.1591 389.532 45.3485 390.024 45.7273C390.52 46.1061 390.873 46.6061 391.081 47.2273Z" fill="#717171"/>
</g>
</g>
<defs>
<clipPath id="clip0_1_1021">
<rect width="540" height="60" fill="white"/>
</clipPath>
<clipPath id="clip1_1_1021">
<rect width="191" height="60" fill="white" transform="translate(64)"/>
</clipPath>
<clipPath id="clip2_1_1021">
<rect width="191" height="60" fill="white" transform="translate(349)"/>
</clipPath>
</defs>
</svg>
